<svg data-v-d3f97b9e="" xmlns="http://www.w3.org/2000/svg" viewBox="0 0 951.0304488517567 193"><!----><!----><!----><g data-v-d3f97b9e="" id="f4499252-0ac8-446e-a750-065e3db66678" fill="black" transform="matrix(12.244898912460865,0,0,12.244898912460865,6.507902051680503,-22.702657559076087)"><path d="M0.49 6.62L0.49 1.94L3.46 1.94L3.46 1.94Q5.33 1.94 6.03 3.21L6.03 3.21L6.03 3.21Q6.62 4.20 6.62 6.48L6.62 6.48L6.91 6.48L6.91 8.82L4.02 8.82L4.02 8.56L4.92 8.56L4.92 6.48L4.66 6.48L4.66 5.63L4.66 5.63Q4.66 4.18 4.02 3.79L4.02 3.79L4.02 3.79Q3.64 3.57 2.80 3.57L2.80 3.57L2.41 3.57L2.41 6.43L2.67 6.43L2.67 8.82L0.71 8.82L0.71 6.62L0.49 6.62ZM4.71 8.09L4.71 8.09L4.81 8.09L4.81 8.34L4.86 8.34L4.86 8.42L4.81 8.42L4.81 8.52L4.71 8.52L4.71 8.42L4.53 8.42L4.53 8.36L4.53 8.36Q4.71 8.11 4.71 8.09ZM4.63 8.34L4.63 8.34L4.71 8.34L4.71 8.24L4.71 8.24Q4.69 8.24 4.63 8.34ZM2.90 8.54L2.77 8.33L2.86 8.33L2.86 8.33Q2.88 8.33 2.97 8.44L2.97 8.44L2.97 8.44Q3.04 8.36 3.04 8.33L3.04 8.33L3.14 8.33L3.14 8.34L3.14 8.34Q3.04 8.50 3.04 8.54L3.04 8.54L3.17 8.75L3.04 8.75L3.04 8.75Q3.04 8.70 2.95 8.62L2.95 8.62L2.95 8.62Q2.89 8.74 2.85 8.75L2.85 8.75L2.75 8.75L2.75 8.75Q2.86 8.55 2.90 8.54L2.90 8.54ZM-0.39 9.13L-0.39 8.82L0.50 8.82L0.50 9.13L2.67 9.13L2.67 9.78L4.02 9.78L4.02 9.13L6.91 9.13L6.91 9.78L4.92 9.78L4.92 11.52L2.67 11.52L2.67 11.73L0.51 11.73L0.51 11.73Q0.49 11.73 0.49 11.70L0.49 11.70L0.49 9.13L-0.39 9.13ZM2.67 9.13L2.67 8.82L4.02 8.82L4.02 9.13L2.67 9.13ZM6.91 9.13L6.91 8.82L8.84 8.82L8.84 9.13L6.91 9.13ZM5.15 9.84L5.15 9.84L5.27 9.84L5.27 9.84Q5.39 10.16 5.41 10.28L5.41 10.28L5.33 10.28L5.33 10.28Q5.30 10.28 5.28 10.19L5.28 10.19L5.15 10.19L5.15 10.19Q5.12 10.19 5.11 10.28L5.11 10.28L5.00 10.28L5.00 10.27L5.00 10.27Q5.00 10.25 5.15 9.84ZM5.53 9.84L5.53 9.84L5.63 9.84L5.71 10.12L5.73 10.12L5.73 10.12Q5.73 10.09 5.81 9.84L5.81 9.84L5.91 9.84L5.91 9.84Q5.91 9.89 5.78 10.28L5.78 10.28L5.68 10.28L5.68 10.28Q5.64 10.28 5.53 9.84ZM6.08 10.28L6.08 9.84L6.19 9.84L6.19 10.28L6.08 10.28ZM6.38 10.28L6.38 9.84L6.57 9.84L6.57 9.84Q6.78 9.84 6.78 10.08L6.78 10.08L6.78 10.08Q6.78 10.25 6.57 10.28L6.57 10.28L6.38 10.28ZM6.60 9.94L6.50 9.94L6.50 10.19L6.60 10.19L6.60 10.19Q6.62 10.19 6.67 10.12L6.67 10.12L6.67 10.00L6.67 10.00Q6.67 9.98 6.60 9.94L6.60 9.94ZM5.22 9.97L5.20 9.97L5.20 9.97Q5.20 9.99 5.17 10.10L5.17 10.10L5.25 10.10L5.25 10.10Q5.22 9.99 5.22 9.97L5.22 9.97ZM8.70 7.57L10.38 1.94L12.03 1.94L12.03 1.94Q12.07 2.08 13.64 7.29L13.64 7.29L13.93 7.29L13.93 10.51L13.25 10.51L13.25 10.76L13.93 10.76L13.93 11.45L12.11 11.45L12.11 9.47L9.88 9.47L9.88 10.31L8.98 10.31L8.98 11.73L7.33 11.73L7.33 11.63L7.46 11.63L7.46 10.31L8.13 10.31L8.13 7.57L8.70 7.57ZM11.19 4.70L11.16 4.70L11.16 4.72L11.16 4.72Q10.94 5.88 10.34 8.39L10.34 8.39L11.87 8.39L11.87 7.29L11.74 7.29L11.74 7.29Q11.19 4.91 11.19 4.70L11.19 4.70ZM8.24 7.08L8.24 7.08L8.39 7.08L8.39 7.08Q8.39 7.14 8.45 7.18L8.45 7.18L8.45 7.18Q8.46 7.12 8.52 7.08L8.52 7.08L8.63 7.08L8.63 7.09L8.63 7.09Q8.52 7.25 8.52 7.27L8.52 7.27L8.52 7.27Q8.54 7.33 8.65 7.47L8.65 7.47L8.65 7.51L8.59 7.51L8.59 7.51Q8.49 7.51 8.45 7.37L8.45 7.37L8.45 7.37Q8.35 7.51 8.33 7.51L8.33 7.51L8.25 7.51L8.25 7.51Q8.22 7.51 8.22 7.47L8.22 7.47L8.22 7.47Q8.24 7.47 8.35 7.29L8.35 7.29L8.35 7.26L8.35 7.26Q8.24 7.09 8.24 7.08ZM6.85 7.57L6.85 7.27L8.13 7.27L8.13 7.57L6.85 7.57ZM13.98 7.59L13.98 7.49L14.33 7.49L14.33 7.57L14.12 7.83L14.31 7.83L14.31 7.83Q14.34 7.84 14.34 7.87L14.34 7.87L14.34 7.90L14.34 7.90Q14.34 7.94 14.31 7.94L14.31 7.94L13.97 7.94L13.97 7.85L14.18 7.59L13.98 7.59ZM11.46 8.36L11.46 7.92L11.55 7.92L11.55 8.08L11.74 7.92L11.83 7.92L11.83 7.94L11.69 8.10L11.69 8.10Q11.85 8.33 11.85 8.36L11.85 8.36L11.75 8.36L11.75 8.36Q11.74 8.36 11.60 8.18L11.60 8.18L11.60 8.18Q11.58 8.18 11.55 8.23L11.55 8.23L11.55 8.36L11.46 8.36ZM14.01 8.07L14.01 8.07L14.21 8.07L14.21 8.07Q14.36 8.09 14.36 8.22L14.36 8.22L14.31 8.30L14.31 8.30Q14.36 8.35 14.36 8.50L14.36 8.50L14.36 8.51L14.26 8.51L14.26 8.51Q14.25 8.35 14.21 8.35L14.21 8.35L14.10 8.35L14.10 8.51L14.01 8.51L14.01 8.51Q13.98 8.51 13.98 8.48L13.98 8.48L13.98 8.10L13.98 8.10Q13.99 8.07 14.01 8.07ZM14.25 8.16L14.10 8.16L14.10 8.26L14.21 8.26L14.21 8.26Q14.25 8.26 14.25 8.23L14.25 8.23L14.25 8.16ZM13.98 8.64L13.98 8.64L14.29 8.64L14.29 8.64Q14.33 8.65 14.33 8.67L14.33 8.67L14.33 8.71L14.33 8.71Q14.33 8.74 14.29 8.74L14.29 8.74L14.20 8.74L14.20 9.09L14.08 9.09L14.08 8.74L13.98 8.74L13.98 8.74Q13.95 8.74 13.95 8.71L13.95 8.71L13.95 8.67L13.95 8.67Q13.95 8.64 13.98 8.64ZM14.08 9.67L13.95 9.22L14.03 9.22L14.03 9.22Q14.08 9.22 14.13 9.50L14.13 9.50L14.14 9.50L14.14 9.50Q14.23 9.26 14.23 9.22L14.23 9.22L14.34 9.22L14.34 9.22Q14.21 9.67 14.18 9.67L14.18 9.67L14.08 9.67ZM9.97 9.75L10.38 9.60L10.38 9.69L10.38 9.69Q10.38 9.71 10.12 9.80L10.12 9.80L10.12 9.82L10.38 9.91L10.38 10.01L9.97 9.86L9.97 9.75ZM7.82 9.80L7.82 9.80L7.88 9.80L7.88 9.80Q7.93 9.80 8.05 10.25L8.05 10.25L7.96 10.25L7.96 10.25Q7.96 10.23 7.92 10.14L7.92 10.14L7.77 10.14L7.77 10.14Q7.76 10.25 7.72 10.25L7.72 10.25L7.64 10.25L7.64 10.25Q7.79 9.80 7.82 9.80ZM14.16 9.80L14.16 9.80L14.21 9.80L14.21 9.80Q14.38 9.80 14.41 10.03L14.41 10.03L14.41 10.03Q14.36 10.26 14.20 10.26L14.20 10.26L14.20 10.26Q13.97 10.22 13.97 10.03L13.97 10.03L13.97 10.03Q14 9.80 14.16 9.80ZM14.08 10.01L14.08 10.01L14.08 10.03L14.08 10.03Q14.08 10.12 14.16 10.17L14.16 10.17L14.21 10.17L14.21 10.17Q14.29 10.12 14.29 10.03L14.29 10.03L14.29 10.01L14.29 10.01Q14.28 9.88 14.18 9.88L14.18 9.88L14.18 9.88Q14.08 9.92 14.08 10.01ZM7.85 9.95L7.84 9.95L7.84 9.95Q7.81 10.06 7.81 10.06L7.81 10.06L7.89 10.06L7.85 9.95ZM12.11 11.73L12.11 11.57L14.31 11.57L14.31 11.73L12.11 11.73ZM18.15 1.93L18.15 1.93L18.15 1.93Q20.25 1.93 20.92 3.41L20.92 3.41L20.92 3.41Q21.29 4.13 21.29 6.18L21.29 6.18L21.29 6.23L20.57 6.23L20.57 6.56L21.29 6.56L21.29 10.09L20.82 10.09L20.82 11.37L19.87 11.37L19.87 11.73L16.54 11.73L16.54 11.37L16.13 11.37L16.13 10.09L15.28 10.09L15.28 9.09L15.79 9.09L15.79 8.57L15.28 8.57L15.28 9.09L14.07 9.09L14.07 8.57L14.98 8.57L14.98 8.57Q14.97 7.37 14.97 6.73L14.97 6.73L14.97 5.90L14.97 5.90Q14.97 3.58 15.76 2.79L15.76 2.79L15.76 2.79Q16.48 1.93 18.15 1.93ZM16.95 5.31L16.95 5.31L16.97 5.31L16.95 5.34L16.95 6.23L16.21 6.23L16.21 6.56L16.95 6.56L16.95 6.56Q16.93 8.67 16.93 9.75L16.93 9.75L16.93 10.09L18.57 10.09L18.57 9.55L19.33 9.55L19.33 9.54L19.33 9.54Q19.33 8.54 19.31 6.75L19.31 6.75L19.31 6.75Q19.31 6.68 19.33 6.37L19.33 6.37L19.33 6.37Q19.33 4.44 19.10 4.00L19.10 4.00L19.10 4.00Q18.87 3.58 18.25 3.58L18.25 3.58L18.00 3.58L18.00 3.58Q17.26 3.58 17.08 4.22L17.08 4.22L17.08 4.22Q17.00 4.55 16.95 5.31ZM21.29 6.56L21.29 6.23L22.47 6.23L22.47 6.56L21.29 6.56ZM21.34 6.64L21.38 6.62L21.41 6.62L21.41 6.62Q21.45 6.62 21.47 6.82L21.47 6.82L21.47 6.82Q21.50 6.82 21.55 6.62L21.55 6.62L21.60 6.62L21.60 6.62Q21.64 6.62 21.67 6.83L21.67 6.83L21.68 6.83L21.73 6.62L21.81 6.62L21.81 6.64L21.81 6.64Q21.74 6.99 21.70 6.99L21.70 6.99L21.64 6.99L21.64 6.99Q21.64 6.97 21.59 6.78L21.59 6.78L21.57 6.78L21.57 6.78Q21.55 6.99 21.51 6.99L21.51 6.99L21.44 6.99L21.44 6.99Q21.39 6.78 21.34 6.64L21.34 6.64ZM21.41 7.11L21.41 7.11L21.47 7.11L21.47 7.11Q21.51 7.11 21.57 7.34L21.57 7.34L21.59 7.34L21.59 7.34Q21.59 7.31 21.65 7.11L21.65 7.11L21.77 7.11L21.77 7.49L21.68 7.49L21.68 7.29L21.67 7.29L21.67 7.29Q21.62 7.49 21.59 7.49L21.59 7.49L21.54 7.49L21.54 7.49Q21.49 7.33 21.49 7.31L21.49 7.31L21.47 7.31L21.47 7.31Q21.47 7.49 21.44 7.49L21.44 7.49L21.38 7.49L21.38 7.14L21.38 7.14Q21.38 7.11 21.41 7.11ZM21.36 7.60L21.36 7.60L21.42 7.60L21.42 7.60Q21.51 7.65 21.51 7.72L21.51 7.72L21.51 7.72Q21.51 7.72 21.60 7.60L21.60 7.60L21.67 7.60L21.67 7.64L21.57 7.78L21.57 7.78Q21.57 7.79 21.68 7.96L21.68 7.96L21.68 7.98L21.60 7.98L21.51 7.86L21.51 7.86Q21.45 7.98 21.42 7.98L21.42 7.98L21.34 7.98L21.34 7.98Q21.46 7.81 21.46 7.78L21.46 7.78L21.46 7.78Q21.36 7.63 21.36 7.60ZM21.41 8.09L21.41 8.09L21.51 8.09L21.51 8.09Q21.67 8.09 21.67 8.21L21.67 8.21L21.67 8.22L21.64 8.27L21.64 8.27Q21.66 8.27 21.68 8.33L21.68 8.33L21.68 8.39L21.68 8.39Q21.65 8.47 21.52 8.47L21.52 8.47L21.38 8.47L21.38 8.13L21.38 8.13Q21.38 8.09 21.41 8.09ZM21.57 8.18L21.47 8.18L21.47 8.24L21.57 8.24L21.57 8.18ZM18.94 8.54L18.94 8.18L19.03 8.18L19.03 8.31L19.15 8.31L19.15 8.21L19.15 8.21Q19.15 8.18 19.18 8.18L19.18 8.18L19.24 8.18L19.24 8.54L19.15 8.54L19.15 8.39L19.03 8.39L19.03 8.54L18.94 8.54ZM21.55 8.31L21.47 8.31L21.47 8.39L21.59 8.39L21.59 8.34L21.59 8.34Q21.59 8.31 21.55 8.31L21.55 8.31ZM21.41 8.59L21.41 8.59L21.62 8.59L21.62 8.59Q21.65 8.59 21.65 8.62L21.65 8.62L21.65 8.67L21.47 8.67L21.47 8.73L21.64 8.73L21.64 8.81L21.47 8.81L21.47 8.88L21.65 8.88L21.65 8.96L21.38 8.96L21.38 8.62L21.38 8.62Q21.38 8.59 21.41 8.59ZM18.94 8.75L18.94 8.67L19.21 8.67L19.21 8.70L19.21 8.70Q19.21 8.76 19.04 8.95L19.04 8.95L19.04 8.95Q19.23 8.95 19.23 8.98L19.23 8.98L19.23 9.03L18.92 9.03L18.92 8.96L18.92 8.96Q19.04 8.82 19.08 8.75L19.08 8.75L18.94 8.75ZM17.21 9.14L17.21 9.14L17.21 9.14Q17.36 9.14 17.38 9.36L17.38 9.36L17.38 9.36Q17.38 9.52 17.18 9.54L17.18 9.54L17.18 9.54Q17.01 9.50 17.01 9.36L17.01 9.36L17.01 9.36Q17.01 9.14 17.21 9.14ZM19.03 9.16L19.03 9.16L19.13 9.16L19.13 9.16Q19.13 9.20 19.26 9.52L19.26 9.52L19.18 9.52L19.18 9.52Q19.15 9.52 19.15 9.45L19.15 9.45L19.03 9.45L19.03 9.45Q19.00 9.45 19.00 9.52L19.00 9.52L18.90 9.52L18.90 9.50L18.90 9.50Q18.94 9.44 19.03 9.16ZM17.12 9.29L17.12 9.29L17.12 9.36L17.12 9.36Q17.12 9.45 17.21 9.45L17.21 9.45L17.21 9.45Q17.28 9.44 17.28 9.36L17.28 9.36L17.28 9.29L17.28 9.29Q17.28 9.26 17.21 9.22L17.21 9.22L17.18 9.22L17.18 9.22Q17.16 9.22 17.12 9.29ZM19.07 9.29L19.07 9.29L19.04 9.37L19.11 9.37L19.11 9.37Q19.09 9.29 19.07 9.29ZM17.18 9.63L17.18 9.63L17.18 9.63Q17.29 9.63 17.34 9.73L17.34 9.73L17.34 9.78L17.26 9.78L17.26 9.78Q17.26 9.71 17.17 9.71L17.17 9.71L17.12 9.78L17.12 9.84L17.12 9.84Q17.12 9.95 17.21 9.95L17.21 9.95L17.21 9.95Q17.23 9.95 17.29 9.86L17.29 9.86L17.36 9.86L17.36 9.86Q17.36 10.00 17.18 10.03L17.18 10.03L17.18 10.03Q17.01 9.98 17.01 9.84L17.01 9.84L17.01 9.84Q17.04 9.63 17.18 9.63ZM22.01 7.49L22.01 1.96L25.36 1.96L25.36 1.96Q27.04 1.96 27.54 3.14L27.54 3.14L27.54 3.14Q27.75 3.75 27.75 4.53L27.75 4.53L27.75 4.94L27.75 4.94Q27.75 6.36 27.13 7.11L27.13 7.11L26.41 7.11L26.41 7.47L27.50 7.47L27.50 9.81L26.86 9.81L26.86 10.17L27.83 10.17L27.83 11.55L25.79 11.55L25.79 9.34L25.01 9.34L25.01 7.92L23.64 7.92L23.64 10.34L23.93 10.34L23.93 11.73L22.05 11.73L22.05 11.73Q22.01 11.73 22.01 11.70L22.01 11.70L22.01 7.77L22.85 7.77L22.85 7.49L22.01 7.49ZM24.74 3.55L23.93 3.55L23.93 6.31L24.40 6.31L24.40 6.31Q25.44 6.31 25.61 6.11L25.61 6.11L25.61 6.11Q25.78 6.00 25.87 5.67L25.87 5.67L26.60 5.67L26.60 5.32L25.94 5.32L25.94 5.35L25.94 5.35Q25.89 5.67 25.86 5.67L25.86 5.67L24.92 5.67L24.92 5.32L25.91 5.32L25.91 5.32Q25.94 5.32 25.94 5.29L25.94 5.29L25.94 5.29Q25.96 4.87 25.96 4.81L25.96 4.81L25.96 4.81Q25.96 3.90 25.64 3.69L25.64 3.69L25.64 3.69Q25.40 3.55 24.74 3.55L24.74 3.55ZM28.72 6.80L28.72 2.00L33.52 2.00L33.52 3.60L33.52 3.60Q33.52 3.63 33.48 3.63L33.48 3.63L30.64 3.63L30.64 5.74L33.19 5.74L33.19 5.76L33.19 5.76Q33.19 5.84 33.16 6.79L33.16 6.79L33.16 6.79Q33.14 6.79 33.14 6.80L33.14 6.80L33.26 6.80L33.26 7.29L31.05 7.29L31.05 9.29L30.45 9.29L30.45 9.49L31.05 9.49L31.05 10.10L33.55 10.10L33.55 10.32L33.35 10.32L33.35 11.52L30.36 11.52L30.36 11.73L28.94 11.73L28.94 8.24L28.72 8.24L28.72 7.01L27.17 7.01L27.17 6.80L28.72 6.80ZM29.54 6.80L28.74 6.80L28.74 7.01L29.54 7.01L29.54 6.80ZM37.62 1.96L37.62 1.96L37.62 1.96Q39.25 1.96 39.80 3.01L39.80 3.01L39.80 3.01Q40.18 3.80 40.18 4.56L40.18 4.56L40.17 4.56L40.17 4.56Q39.05 4.66 38.64 4.66L38.64 4.66L38.64 4.66Q38.64 4.12 38.31 3.75L38.31 3.75L38.31 3.75Q37.99 3.57 37.73 3.57L37.73 3.57L37.45 3.57L37.45 3.57Q36.76 3.57 36.61 4.11L36.61 4.11L36.61 4.11Q36.57 4.27 36.57 4.35L36.57 4.35L36.57 4.50L36.57 4.50Q36.57 5.26 37.38 5.61L37.38 5.61L37.38 5.61Q37.45 5.67 38.50 6.12L38.50 6.12L38.50 6.12Q39.06 6.38 39.54 6.76L39.54 6.76L39.54 6.77L37.82 6.77L37.82 6.97L40.09 6.97L40.09 7.24L40.37 7.24L40.37 10.21L39.81 10.21L39.81 11.73L35.46 11.73L35.46 10.21L34.44 10.21L34.44 9.18L35.02 9.18L35.02 8.83L34.44 8.83L34.44 8.59L36.43 8.59L36.43 10.21L38.47 10.21L38.47 7.77L36.94 7.77L36.94 6.97L35.05 6.97L35.05 6.77L35.96 6.77L35.96 6.76L35.96 6.76Q34.76 5.96 34.76 4.50L34.76 4.50L34.76 4.37L34.76 4.37Q34.76 3.14 35.51 2.51L35.51 2.51L35.51 2.51Q36.20 1.96 37.62 1.96ZM40.09 6.97L40.09 6.77L40.78 6.77L40.78 6.97L40.09 6.97ZM33.78 9.18L33.78 8.83L34.44 8.83L34.44 9.18L33.78 9.18ZM41.53 6.80L41.53 2.00L46.32 2.00L46.32 3.60L46.32 3.60Q46.32 3.63 46.29 3.63L46.29 3.63L43.44 3.63L43.44 5.74L45.99 5.74L45.99 5.76L45.99 5.76Q45.99 5.84 45.96 6.79L45.96 6.79L45.96 6.79Q45.94 6.79 45.94 6.80L45.94 6.80L46.06 6.80L46.06 7.29L43.85 7.29L43.85 9.29L43.26 9.29L43.26 9.49L43.85 9.49L43.85 10.10L46.35 10.10L46.35 10.32L46.16 10.32L46.16 11.52L43.16 11.52L43.16 11.73L41.74 11.73L41.74 8.24L41.53 8.24L41.53 7.01L39.97 7.01L39.97 6.80L41.53 6.80ZM42.34 6.80L41.54 6.80L41.54 7.01L42.34 7.01L42.34 6.80ZM48.49 7.57L50.18 1.96L51.82 1.96L51.82 1.96Q51.86 2.10 53.42 7.29L53.42 7.29L53.72 7.29L53.72 10.51L53.05 10.51L53.05 10.76L53.72 10.76L53.72 11.45L51.91 11.45L51.91 9.47L49.68 9.47L49.68 10.32L48.77 10.32L48.77 11.73L47.13 11.73L47.13 11.63L47.26 11.63L47.26 10.32L47.93 10.32L47.93 7.57L48.49 7.57ZM50.98 4.71L50.95 4.71L50.95 4.72L50.95 4.72Q50.74 5.89 50.13 8.40L50.13 8.40L51.66 8.40L51.66 7.29L51.53 7.29L51.53 7.29Q50.98 4.92 50.98 4.71L50.98 4.71ZM46.65 7.57L46.65 7.28L47.93 7.28L47.93 7.57L46.65 7.57ZM51.91 11.73L51.91 11.57L54.10 11.57L54.10 11.73L51.91 11.73ZM53.82 7.49L53.82 1.96L57.17 1.96L57.17 1.96Q58.85 1.96 59.34 3.14L59.34 3.14L59.34 3.14Q59.55 3.75 59.55 4.53L59.55 4.53L59.55 4.94L59.55 4.94Q59.55 6.36 58.93 7.11L58.93 7.11L58.22 7.11L58.22 7.47L59.31 7.47L59.31 9.81L58.67 9.81L58.67 10.17L59.64 10.17L59.64 11.55L57.60 11.55L57.60 9.34L56.81 9.34L56.81 7.92L55.45 7.92L55.45 10.34L55.74 10.34L55.74 11.73L53.85 11.73L53.85 11.73Q53.82 11.73 53.82 11.70L53.82 11.70L53.82 7.77L54.66 7.77L54.66 7.49L53.82 7.49ZM56.55 3.55L55.74 3.55L55.74 6.31L56.21 6.31L56.21 6.31Q57.25 6.31 57.42 6.11L57.42 6.11L57.42 6.11Q57.59 6.00 57.68 5.67L57.68 5.67L58.41 5.67L58.41 5.32L57.75 5.32L57.75 5.35L57.75 5.35Q57.70 5.67 57.67 5.67L57.67 5.67L56.73 5.67L56.73 5.32L57.72 5.32L57.72 5.32Q57.75 5.32 57.75 5.29L57.75 5.29L57.75 5.29Q57.76 4.87 57.76 4.81L57.76 4.81L57.76 4.81Q57.76 3.90 57.45 3.69L57.45 3.69L57.45 3.69Q57.20 3.55 56.55 3.55L56.55 3.55ZM60.92 11.70L60.92 10.19L62.28 10.19L62.28 10.19Q62.30 10.19 62.30 10.21L62.30 10.21L62.30 11.70L62.30 11.70Q62.30 11.73 62.28 11.73L62.28 11.73L60.95 11.73L60.95 11.73Q60.92 11.73 60.92 11.70L60.92 11.70ZM67.10 1.93L67.10 1.93L67.10 1.93Q69.15 1.93 69.68 3.22L69.68 3.22L69.68 3.22Q69.84 3.53 69.84 3.63L69.84 3.63L68.97 3.63L68.97 3.89L69.90 3.89L69.90 3.88L69.90 3.88Q69.90 3.81 69.84 3.63L69.84 3.63L71.42 3.63L71.42 3.89L69.92 3.89L69.92 3.91L69.92 3.91Q70.03 4.46 70.08 5.09L70.08 5.09L70.08 5.09Q70.08 5.13 68.28 5.22L68.28 5.22L68.28 5.21L68.28 5.21Q68.28 3.58 67.17 3.58L67.17 3.58L66.96 3.58L66.96 3.58Q66.13 3.58 65.95 4.29L65.95 4.29L65.95 4.29Q65.80 4.89 65.80 5.87L65.80 5.87L65.80 7.21L65.78 7.40L65.15 7.40L65.15 7.71L65.78 7.71L65.78 10.08L68.41 10.08L68.41 7.62L69.93 7.62L69.93 10.08L69.09 10.08L69.09 11.60L67.33 11.60L67.33 11.73L65.97 11.73L65.97 11.60L64.58 11.60L64.58 10.84L65.50 10.84L65.50 10.51L64.11 10.51L64.11 9.39L63.53 9.39L63.53 8.00L63.84 8.00L63.84 8.00Q63.82 7.16 63.82 6.66L63.82 6.66L63.82 6.66Q63.82 4.42 64.03 3.84L64.03 3.84L64.03 3.84Q64.24 3.17 64.70 2.69L64.70 2.69L64.70 2.69Q65.50 1.93 67.10 1.93ZM70.60 6.64L70.60 1.96L72.54 1.96L72.54 5.85L74.50 5.85L74.50 1.96L76.14 1.96L76.14 7.51L75.46 7.51L75.46 7.75L76.14 7.75L76.14 11.73L74.53 11.73L74.53 11.73Q74.50 11.73 74.50 11.70L74.50 11.70L74.50 7.48L72.54 7.48L72.54 11.70L72.54 11.70Q72.54 11.73 72.51 11.73L72.51 11.73L70.88 11.73L70.88 6.64L70.60 6.64ZM76.14 7.75L76.14 7.51L77.01 7.51L77.01 7.75L76.14 7.75Z"></path></g><!----><!----><g data-v-d3f97b9e="" id="c82250ab-d013-4ed2-a63d-ac370bae36a4" fill="black" transform="matrix(3.5735558990070766,0,0,3.5735558990070766,-8.040496927159893,120.45681954382098)"><path d="M6.79 5.75L6.79 5.75L6.79 5.75Q6.17 6.58 5.67 7.57L5.67 7.57L5.67 7.57Q5.17 8.57 4.81 9.61L4.81 9.61L4.81 9.61Q4.45 10.65 4.26 11.67L4.26 11.67L4.26 11.67Q4.07 12.68 4.07 13.57L4.07 13.57L4.07 13.57Q4.07 14.66 4.40 15.15L4.40 15.15L4.40 15.15Q4.72 15.64 5.50 15.64L5.50 15.64L5.50 15.64Q6.41 15.64 7.10 15.00L7.10 15.00L7.10 15.00Q7.78 14.36 8.39 13.24L8.39 13.24L8.39 13.24Q8.78 12.52 9.06 11.65L9.06 11.65L9.06 11.65Q9.34 10.78 9.51 9.86L9.51 9.86L9.51 9.86Q9.69 8.95 9.77 8.02L9.77 8.02L9.77 8.02Q9.86 7.08 9.86 6.23L9.86 6.23L9.86 6.23Q9.86 5.68 9.84 5.43L9.84 5.43L9.84 5.43Q9.83 5.18 9.80 5.03L9.80 5.03L9.80 5.03Q9.84 5.03 10.01 5.05L10.01 5.05L10.01 5.05Q10.18 5.08 10.39 5.12L10.39 5.12L10.39 5.12Q10.61 5.17 10.83 5.24L10.83 5.24L10.83 5.24Q11.05 5.31 11.20 5.39L11.20 5.39L11.20 5.39Q11.13 6.45 10.94 7.59L10.94 7.59L10.94 7.59Q10.75 8.72 10.44 9.83L10.44 9.83L10.44 9.83Q10.14 10.93 9.73 11.96L9.73 11.96L9.73 11.96Q9.32 12.98 8.82 13.79L8.82 13.79L8.82 13.79Q8.08 14.99 7.15 15.67L7.15 15.67L7.15 15.67Q6.23 16.35 4.97 16.35L4.97 16.35L4.97 16.35Q3.68 16.35 2.97 15.60L2.97 15.60L2.97 15.60Q2.25 14.85 2.25 13.33L2.25 13.33L2.25 13.33Q2.25 12.45 2.45 11.33L2.45 11.33L2.45 11.33Q2.65 10.22 2.98 9.07L2.98 9.07L2.98 9.07Q3.30 7.91 3.74 6.81L3.74 6.81L3.74 6.81Q4.17 5.71 4.65 4.84L4.65 4.84L4.65 4.84Q4.89 4.86 5.21 4.94L5.21 4.94L5.21 4.94Q5.53 5.03 5.84 5.16L5.84 5.16L5.84 5.16Q6.15 5.29 6.41 5.45L6.41 5.45L6.41 5.45Q6.66 5.61 6.79 5.75ZM20.20 8.39L20.20 8.39L20.20 8.39Q20.57 8.50 20.89 8.88L20.89 8.88L20.89 8.88Q21.21 9.27 21.36 9.73L21.36 9.73L21.36 9.73Q21.21 10.11 20.89 10.64L20.89 10.64L20.89 10.64Q20.57 11.17 20.24 11.72L20.24 11.72L20.24 11.72Q19.92 12.28 19.66 12.78L19.66 12.78L19.66 12.78Q19.40 13.27 19.36 13.59L19.36 13.59L19.36 13.59Q19.59 13.36 19.86 13.04L19.86 13.04L19.86 13.04Q20.13 12.73 20.39 12.41L20.39 12.41L20.39 12.41Q20.65 12.10 20.87 11.84L20.87 11.84L20.87 11.84Q21.10 11.58 21.22 11.45L21.22 11.45L21.22 11.45Q21.49 11.17 21.85 10.80L21.85 10.80L21.85 10.80Q22.22 10.43 22.62 10.10L22.62 10.10L22.62 10.10Q23.02 9.77 23.42 9.54L23.42 9.54L23.42 9.54Q23.83 9.31 24.16 9.31L24.16 9.31L24.16 9.31Q24.53 9.31 24.77 9.55L24.77 9.55L24.77 9.55Q25.02 9.80 25.16 10.07L25.16 10.07L25.16 10.07Q25.16 10.09 25.05 10.14L25.05 10.14L25.05 10.14Q24.95 10.19 24.75 10.42L24.75 10.42L24.75 10.42Q24.56 10.67 24.31 11.11L24.31 11.11L24.31 11.11Q24.07 11.55 23.84 12.06L23.84 12.06L23.84 12.06Q23.60 12.57 23.45 13.10L23.45 13.10L23.45 13.10Q23.30 13.64 23.30 14.07L23.30 14.07L23.30 14.07Q23.30 14.42 23.39 14.52L23.39 14.52L23.39 14.52Q23.48 14.62 23.65 14.62L23.65 14.62L23.65 14.62Q23.80 14.62 23.97 14.55L23.97 14.55L23.97 14.55Q24.14 14.48 24.23 14.48L24.23 14.48L24.23 14.48Q24.29 14.50 24.33 14.60L24.33 14.60L24.33 14.60Q24.36 14.69 24.36 14.76L24.36 14.76L24.36 14.76Q24.25 14.85 24.09 14.95L24.09 14.95L24.09 14.95Q23.94 15.05 23.77 15.13L23.77 15.13L23.77 15.13Q23.60 15.22 23.44 15.27L23.44 15.27L23.44 15.27Q23.28 15.33 23.16 15.33L23.16 15.33L23.16 15.33Q22.75 15.33 22.49 15.21L22.49 15.21L22.49 15.21Q22.23 15.09 22.09 14.90L22.09 14.90L22.09 14.90Q21.94 14.70 21.88 14.43L21.88 14.43L21.88 14.43Q21.83 14.15 21.83 13.85L21.83 13.85L21.83 13.85Q21.83 13.68 21.85 13.47L21.85 13.47L21.85 13.47Q21.88 13.26 21.97 12.97L21.97 12.97L21.97 12.97Q22.05 12.68 22.20 12.29L22.20 12.29L22.20 12.29Q22.36 11.89 22.60 11.33L22.60 11.33L22.60 11.33Q22.57 11.33 22.22 11.52L22.22 11.52L22.22 11.52Q21.87 11.72 21.46 12.12L21.46 12.12L21.46 12.12Q20.80 12.75 20.28 13.37L20.28 13.37L20.28 13.37Q19.75 13.99 19.21 14.74L19.21 14.74L19.21 14.74Q18.90 15.18 18.67 15.48L18.67 15.48L18.67 15.48Q18.44 15.78 18.27 15.88L18.27 15.88L18.27 15.88Q17.98 15.71 17.84 15.41L17.84 15.41L17.84 15.41Q17.70 15.11 17.63 14.78L17.63 14.78L17.63 14.78Q17.63 14.52 17.70 14.11L17.70 14.11L17.70 14.11Q17.78 13.71 17.91 13.21L17.91 13.21L17.91 13.21Q18.05 12.71 18.24 12.17L18.24 12.17L18.24 12.17Q18.44 11.62 18.68 11.07L18.68 11.07L18.68 11.07Q19.21 9.84 19.65 9.14L19.65 9.14L19.65 9.14Q20.09 8.44 20.20 8.39ZM37.32 9.60L37.32 9.60L37.32 9.60Q37.31 9.87 37.23 10.16L37.23 10.16L37.23 10.16Q37.16 10.44 37.04 10.68L37.04 10.68L37.04 10.68Q36.93 10.91 36.81 11.06L36.81 11.06L36.81 11.06Q36.68 11.21 36.57 11.21L36.57 11.21L36.57 11.21Q36.41 11.20 36.39 11.00L36.39 11.00L36.39 11.00Q36.39 10.96 36.42 10.87L36.42 10.87L36.42 10.87Q36.46 10.78 36.50 10.67L36.50 10.67L36.50 10.67Q36.54 10.56 36.58 10.44L36.58 10.44L36.58 10.44Q36.61 10.33 36.61 10.25L36.61 10.25L36.61 10.25Q36.61 10.05 36.52 9.92L36.52 9.92L36.52 9.92Q36.43 9.79 36.27 9.79L36.27 9.79L36.27 9.79Q35.71 9.79 35.42 10.49L35.42 10.49L35.42 10.49Q35.13 11.19 35.13 12.54L35.13 12.54L35.13 12.54Q35.13 12.68 35.14 12.71L35.14 12.71L35.14 12.71Q35.43 12.70 35.67 12.69L35.67 12.69L35.67 12.69Q35.90 12.68 36.12 12.68L36.12 12.68L36.12 12.68Q36.13 12.71 36.13 12.80L36.13 12.80L36.13 12.80Q36.13 12.92 36.08 12.98L36.08 12.98L36.08 12.98Q35.76 13.05 35.57 13.10L35.57 13.10L35.57 13.10Q35.38 13.15 35.28 13.19L35.28 13.19L35.28 13.19Q35.18 13.23 35.16 13.28L35.16 13.28L35.16 13.28Q35.14 13.33 35.14 13.41L35.14 13.41L35.14 13.41Q35.14 13.52 35.15 13.64L35.15 13.64L35.15 13.64Q35.15 13.75 35.15 13.92L35.15 13.92L35.15 13.92Q35.15 15.09 34.52 15.81L34.52 15.81L34.52 15.81Q33.88 16.52 32.75 16.63L32.75 16.63L32.75 16.63Q32.55 16.62 32.34 16.52L32.34 16.52L32.34 16.52Q32.13 16.42 31.94 16.27L31.94 16.27L31.94 16.27Q31.75 16.11 31.61 15.93L31.61 15.93L31.61 15.93Q31.47 15.74 31.42 15.54L31.42 15.54L31.42 15.54Q31.42 15.01 31.64 14.53L31.64 14.53L31.64 14.53Q31.86 14.04 32.25 13.67L32.25 13.67L32.25 13.67Q32.63 13.30 33.16 13.07L33.16 13.07L33.16 13.07Q33.68 12.84 34.30 12.80L34.30 12.80L34.30 12.80Q34.30 12.45 34.23 12.11L34.23 12.11L34.23 12.11Q34.16 11.77 34.08 11.46L34.08 11.46L34.08 11.46Q34.01 11.14 33.94 10.84L33.94 10.84L33.94 10.84Q33.87 10.54 33.87 10.25L33.87 10.25L33.87 10.25Q33.87 9.87 34.02 9.50L34.02 9.50L34.02 9.50Q34.17 9.13 34.43 8.81L34.43 8.81L34.43 8.81Q34.68 8.50 35.01 8.27L35.01 8.27L35.01 8.27Q35.35 8.05 35.71 7.97L35.71 7.97L35.71 7.97Q35.87 8.01 36.13 8.21L36.13 8.21L36.13 8.21Q36.39 8.41 36.64 8.67L36.64 8.67L36.64 8.67Q36.89 8.92 37.09 9.18L37.09 9.18L37.09 9.18Q37.28 9.44 37.32 9.60ZM32.70 15.99L32.70 15.99L32.70 15.99Q33.04 15.85 33.34 15.58L33.34 15.58L33.34 15.58Q33.64 15.32 33.87 14.98L33.87 14.98L33.87 14.98Q34.09 14.64 34.22 14.27L34.22 14.27L34.22 14.27Q34.36 13.89 34.36 13.52L34.36 13.52L34.36 13.52Q34.08 13.57 33.74 13.78L33.74 13.78L33.74 13.78Q33.40 14 33.11 14.30L33.11 14.30L33.11 14.30Q32.82 14.60 32.62 14.92L32.62 14.92L32.62 14.92Q32.42 15.25 32.42 15.48L32.42 15.48L32.42 15.48Q32.42 15.79 32.70 15.99ZM45.96 9.81L45.16 9.81L45.16 9.81Q45.09 9.73 45.04 9.46L45.04 9.46L45.04 9.46Q44.98 9.18 44.98 8.99L44.98 8.99L44.98 8.99Q45.35 9.02 45.68 9.04L45.68 9.04L45.68 9.04Q46.02 9.06 46.30 9.07L46.30 9.07L46.30 9.07Q46.51 8.65 46.75 8.24L46.75 8.24L46.75 8.24Q47.00 7.83 47.23 7.48L47.23 7.48L47.23 7.48Q47.46 7.14 47.66 6.90L47.66 6.90L47.66 6.90Q47.87 6.66 47.98 6.59L47.98 6.59L47.98 6.59Q48.12 6.59 48.34 6.64L48.34 6.64L48.34 6.64Q48.55 6.69 48.78 6.77L48.78 6.77L48.78 6.77Q49.00 6.85 49.18 6.93L49.18 6.93L49.18 6.93Q49.36 7.01 49.43 7.10L49.43 7.10L49.43 7.10Q49.01 7.63 48.71 8.09L48.71 8.09L48.71 8.09Q48.41 8.54 48.06 9.13L48.06 9.13L48.06 9.13Q48.34 9.13 48.63 9.11L48.63 9.11L48.63 9.11Q48.92 9.10 49.21 9.07L49.21 9.07L49.21 9.07Q49.28 9.14 49.32 9.25L49.32 9.25L49.32 9.25Q49.36 9.35 49.36 9.46L49.36 9.46L49.36 9.46Q48.68 9.72 47.70 9.74L47.70 9.74L47.70 9.74Q47.35 10.42 47.08 11.08L47.08 11.08L47.08 11.08Q46.80 11.75 46.61 12.36L46.61 12.36L46.61 12.36Q46.42 12.98 46.32 13.52L46.32 13.52L46.32 13.52Q46.21 14.07 46.21 14.50L46.21 14.50L46.21 14.50Q46.21 15.12 46.68 15.19L46.68 15.19L46.68 15.19Q47.10 15.13 47.47 14.98L47.47 14.98L47.47 14.98Q47.85 14.83 48.15 14.59L48.15 14.59L48.15 14.59Q48.23 14.71 48.24 14.80L48.24 14.80L48.24 14.80Q48.16 14.92 47.96 15.09L47.96 15.09L47.96 15.09Q47.75 15.26 47.52 15.42L47.52 15.42L47.52 15.42Q47.28 15.58 47.05 15.69L47.05 15.69L47.05 15.69Q46.83 15.81 46.72 15.82L46.72 15.82L46.72 15.82Q46.37 15.81 46.02 15.67L46.02 15.67L46.02 15.67Q45.67 15.53 45.38 15.32L45.38 15.32L45.38 15.32Q45.09 15.11 44.91 14.85L44.91 14.85L44.91 14.85Q44.73 14.59 44.73 14.34L44.73 14.34L44.73 14.34Q44.73 14 44.82 13.49L44.82 13.49L44.82 13.49Q44.91 12.98 45.08 12.38L45.08 12.38L45.08 12.38Q45.25 11.77 45.47 11.12L45.47 11.12L45.47 11.12Q45.70 10.46 45.96 9.81L45.96 9.81ZM57.92 15.67L57.92 15.67L57.92 15.67Q57.12 15.58 56.64 14.97L56.64 14.97L56.64 14.97Q56.17 14.35 56.17 13.40L56.17 13.40L56.17 13.40Q56.17 12.84 56.34 12.24L56.34 12.24L56.34 12.24Q56.50 11.63 56.81 11.07L56.81 11.07L56.81 11.07Q57.12 10.50 57.54 10.00L57.54 10.00L57.54 10.00Q57.96 9.49 58.45 9.13L58.45 9.13L58.45 9.13Q59.22 8.55 59.89 8.55L59.89 8.55L59.89 8.55Q60.34 8.79 60.77 9.55L60.77 9.55L60.77 9.55Q60.84 9.55 60.90 9.54L60.90 9.54L60.90 9.54Q60.96 9.53 61.03 9.53L61.03 9.53L61.03 9.53Q61.77 9.53 61.77 10.85L61.77 10.85L61.77 10.85Q61.77 11.73 61.48 12.52L61.48 12.52L61.48 12.52Q61.19 13.31 60.68 13.96L60.68 13.96L60.68 13.96Q60.17 14.60 59.47 15.04L59.47 15.04L59.47 15.04Q58.76 15.48 57.92 15.67ZM58.63 11.26L58.63 11.26L58.63 11.26Q58.39 11.58 58.18 11.96L58.18 11.96L58.18 11.96Q57.97 12.33 57.82 12.72L57.82 12.72L57.82 12.72Q57.67 13.10 57.58 13.46L57.58 13.46L57.58 13.46Q57.50 13.82 57.50 14.10L57.50 14.10L57.50 14.10Q57.50 14.43 57.61 14.74L57.61 14.74L57.61 14.74Q57.72 15.05 57.86 15.09L57.86 15.09L57.86 15.09Q58.49 14.95 59.02 14.57L59.02 14.57L59.02 14.57Q59.54 14.18 59.93 13.61L59.93 13.61L59.93 13.61Q60.31 13.03 60.53 12.31L60.53 12.31L60.53 12.31Q60.75 11.58 60.75 10.75L60.75 10.75L60.75 10.75Q60.75 10.39 60.70 10.18L60.70 10.18L60.70 10.18Q60.66 9.97 60.56 9.81L60.56 9.81L60.56 9.81Q59.95 10.00 59.47 10.40L59.47 10.40L59.47 10.40Q58.98 10.81 58.63 11.26ZM68.42 19.81L68.42 19.81L68.42 19.81Q68.22 19.75 68.19 19.39L68.19 19.39L68.19 19.39Q68.14 19.21 68.12 18.96L68.12 18.96L68.12 18.96Q68.10 18.70 68.10 18.38L68.10 18.38L68.10 18.38Q68.10 18.09 68.19 17.58L68.19 17.58L68.19 17.58Q68.29 17.07 68.47 16.42L68.47 16.42L68.47 16.42Q68.64 15.78 68.89 15.03L68.89 15.03L68.89 15.03Q69.15 14.28 69.45 13.51L69.45 13.51L69.45 13.51Q69.83 12.54 70.11 11.84L70.11 11.84L70.11 11.84Q70.39 11.13 70.58 10.61L70.58 10.61L70.58 10.61Q70.77 10.09 70.89 9.76L70.89 9.76L70.89 9.76Q71.01 9.42 71.08 9.18L71.08 9.18L71.08 9.18Q71.13 9.02 71.25 8.78L71.25 8.78L71.25 8.78Q71.36 8.54 71.50 8.29L71.50 8.29L71.50 8.29Q71.65 8.05 71.81 7.83L71.81 7.83L71.81 7.83Q71.96 7.62 72.09 7.50L72.09 7.50L72.09 7.50Q72.58 7.57 73.01 7.76L73.01 7.76L73.01 7.76Q73.44 7.94 73.54 8.11L73.54 8.11L73.54 8.11Q73.35 8.29 73.09 8.67L73.09 8.67L73.09 8.67Q72.84 9.06 72.60 9.51L72.60 9.51L72.60 9.51Q72.37 9.97 72.17 10.44L72.17 10.44L72.17 10.44Q71.97 10.92 71.88 11.28L71.88 11.28L71.88 11.28Q72.02 11.05 72.24 10.77L72.24 10.77L72.24 10.77Q72.46 10.49 72.93 10.00L72.93 10.00L72.93 10.00Q73.44 9.46 73.90 9.18L73.90 9.18L73.90 9.18Q74.35 8.89 74.69 8.89L74.69 8.89L74.69 8.89Q75.22 8.89 75.56 9.18L75.56 9.18L75.56 9.18Q75.91 9.48 75.91 9.94L75.91 9.94L75.91 9.94Q75.91 10.95 75.57 11.94L75.57 11.94L75.57 11.94Q75.24 12.92 74.61 13.72L74.61 13.72L74.61 13.72Q74.37 14.03 74.05 14.31L74.05 14.31L74.05 14.31Q73.72 14.59 73.37 14.80L73.37 14.80L73.37 14.80Q73.02 15.02 72.69 15.15L72.69 15.15L72.69 15.15Q72.35 15.27 72.09 15.27L72.09 15.27L72.09 15.27Q71.83 15.27 71.64 15.17L71.64 15.17L71.64 15.17Q71.46 15.06 71.39 14.91L71.39 14.91L71.39 14.91Q71.93 14.59 72.45 14.01L72.45 14.01L72.45 14.01Q72.97 13.44 73.41 12.69L73.41 12.69L73.41 12.69Q73.85 11.94 74.18 11.07L74.18 11.07L74.18 11.07Q74.51 10.21 74.68 9.31L74.68 9.31L74.68 9.31Q74.14 9.59 73.72 9.92L73.72 9.92L73.72 9.92Q73.29 10.25 72.87 10.78L72.87 10.78L72.87 10.78Q72.37 11.40 72.07 11.77L72.07 11.77L72.07 11.77Q71.78 12.15 71.59 12.42L71.59 12.42L71.59 12.42Q71.40 12.68 71.28 12.91L71.28 12.91L71.28 12.91Q71.16 13.15 71.02 13.48L71.02 13.48L71.02 13.48Q70.83 13.93 70.57 14.67L70.57 14.67L70.57 14.67Q70.31 15.40 70.03 16.31L70.03 16.31L70.03 16.31Q69.76 17.22 69.49 18.25L69.49 18.25L69.49 18.25Q69.22 19.28 68.96 20.30L68.96 20.30L68.96 20.30Q68.81 20.27 68.70 20.08L68.70 20.08L68.70 20.08Q68.59 19.95 68.54 19.89L68.54 19.89L68.54 19.89Q68.49 19.84 68.42 19.81ZM82.39 19.81L82.39 19.81L82.39 19.81Q82.19 19.75 82.17 19.39L82.17 19.39L82.17 19.39Q82.11 19.21 82.09 18.96L82.09 18.96L82.09 18.96Q82.07 18.70 82.07 18.38L82.07 18.38L82.07 18.38Q82.07 18.09 82.17 17.58L82.17 17.58L82.17 17.58Q82.26 17.07 82.44 16.42L82.44 16.42L82.44 16.42Q82.61 15.78 82.87 15.03L82.87 15.03L82.87 15.03Q83.12 14.28 83.43 13.51L83.43 13.51L83.43 13.51Q83.80 12.54 84.08 11.84L84.08 11.84L84.08 11.84Q84.36 11.13 84.55 10.61L84.55 10.61L84.55 10.61Q84.74 10.09 84.86 9.76L84.86 9.76L84.86 9.76Q84.98 9.42 85.05 9.18L85.05 9.18L85.05 9.18Q85.11 9.02 85.22 8.78L85.22 8.78L85.22 8.78Q85.33 8.54 85.48 8.29L85.48 8.29L85.48 8.29Q85.62 8.05 85.78 7.83L85.78 7.83L85.78 7.83Q85.93 7.62 86.06 7.50L86.06 7.50L86.06 7.50Q86.55 7.57 86.98 7.76L86.98 7.76L86.98 7.76Q87.42 7.94 87.51 8.11L87.51 8.11L87.51 8.11Q87.32 8.29 87.07 8.67L87.07 8.67L87.07 8.67Q86.81 9.06 86.58 9.51L86.58 9.51L86.58 9.51Q86.34 9.97 86.14 10.44L86.14 10.44L86.14 10.44Q85.95 10.92 85.85 11.28L85.85 11.28L85.85 11.28Q85.99 11.05 86.21 10.77L86.21 10.77L86.21 10.77Q86.44 10.49 86.90 10.00L86.90 10.00L86.90 10.00Q87.42 9.46 87.87 9.18L87.87 9.18L87.87 9.18Q88.33 8.89 88.66 8.89L88.66 8.89L88.66 8.89Q89.19 8.89 89.54 9.18L89.54 9.18L89.54 9.18Q89.88 9.48 89.88 9.94L89.88 9.94L89.88 9.94Q89.88 10.95 89.54 11.94L89.54 11.94L89.54 11.94Q89.21 12.92 88.58 13.72L88.58 13.72L88.58 13.72Q88.34 14.03 88.02 14.31L88.02 14.31L88.02 14.31Q87.70 14.59 87.35 14.80L87.35 14.80L87.35 14.80Q87.00 15.02 86.66 15.15L86.66 15.15L86.66 15.15Q86.32 15.27 86.06 15.27L86.06 15.27L86.06 15.27Q85.81 15.27 85.62 15.17L85.62 15.17L85.62 15.17Q85.43 15.06 85.36 14.91L85.36 14.91L85.36 14.91Q85.90 14.59 86.42 14.01L86.42 14.01L86.42 14.01Q86.94 13.44 87.38 12.69L87.38 12.69L87.38 12.69Q87.82 11.94 88.15 11.07L88.15 11.07L88.15 11.07Q88.48 10.21 88.65 9.31L88.65 9.31L88.65 9.31Q88.12 9.59 87.69 9.92L87.69 9.92L87.69 9.92Q87.26 10.25 86.84 10.78L86.84 10.78L86.84 10.78Q86.34 11.40 86.04 11.77L86.04 11.77L86.04 11.77Q85.75 12.15 85.56 12.42L85.56 12.42L85.56 12.42Q85.37 12.68 85.25 12.91L85.25 12.91L85.25 12.91Q85.13 13.15 84.99 13.48L84.99 13.48L84.99 13.48Q84.80 13.93 84.54 14.67L84.54 14.67L84.54 14.67Q84.28 15.40 84.01 16.31L84.01 16.31L84.01 16.31Q83.73 17.22 83.46 18.25L83.46 18.25L83.46 18.25Q83.19 19.28 82.94 20.30L82.94 20.30L82.94 20.30Q82.78 20.27 82.67 20.08L82.67 20.08L82.67 20.08Q82.56 19.95 82.51 19.89L82.51 19.89L82.51 19.89Q82.46 19.84 82.39 19.81ZM102.21 9.52L102.21 9.52L102.21 9.52Q102.35 9.52 102.54 9.57L102.54 9.57L102.54 9.57Q102.73 9.62 102.89 9.70L102.89 9.70L102.89 9.70Q103.04 9.77 103.14 9.86L103.14 9.86L103.14 9.86Q103.25 9.94 103.25 10.01L103.25 10.01L103.25 10.01Q102.97 10.60 102.73 11.19L102.73 11.19L102.73 11.19Q102.49 11.79 102.33 12.33L102.33 12.33L102.33 12.33Q102.16 12.88 102.07 13.36L102.07 13.36L102.07 13.36Q101.98 13.83 101.98 14.18L101.98 14.18L101.98 14.18Q101.98 14.57 102.06 14.83L102.06 14.83L102.06 14.83Q102.14 15.09 102.34 15.20L102.34 15.20L102.34 15.20Q102.17 15.32 101.91 15.39L101.91 15.39L101.91 15.39Q101.64 15.46 101.43 15.46L101.43 15.46L101.43 15.46Q100.67 15.46 100.67 14.42L100.67 14.42L100.67 14.42Q100.67 13.62 101.21 12.24L101.21 12.24L101.21 12.24Q100.93 12.88 100.56 13.45L100.56 13.45L100.56 13.45Q100.20 14.01 99.82 14.45L99.82 14.45L99.82 14.45Q99.44 14.88 99.06 15.15L99.06 15.15L99.06 15.15Q98.67 15.43 98.35 15.48L98.35 15.48L98.35 15.48Q97.83 15.46 97.51 14.99L97.51 14.99L97.51 14.99Q97.19 14.52 97.19 13.79L97.19 13.79L97.19 13.79Q97.19 13.01 97.52 12.14L97.52 12.14L97.52 12.14Q97.86 11.27 98.38 10.53L98.38 10.53L98.38 10.53Q98.91 9.79 99.53 9.29L99.53 9.29L99.53 9.29Q100.14 8.79 100.72 8.76L100.72 8.76L100.72 8.76Q100.86 8.81 101.03 8.93L101.03 8.93L101.03 8.93Q101.21 9.06 101.37 9.23L101.37 9.23L101.37 9.23Q101.53 9.39 101.64 9.57L101.64 9.57L101.64 9.57Q101.75 9.74 101.77 9.87L101.77 9.87L101.77 9.87Q101.21 9.95 100.61 10.42L100.61 10.42L100.61 10.42Q100.02 10.88 99.53 11.53L99.53 11.53L99.53 11.53Q99.05 12.18 98.74 12.92L98.74 12.92L98.74 12.92Q98.43 13.66 98.43 14.31L98.43 14.31L98.43 14.31Q98.43 14.57 98.63 14.64L98.63 14.64L98.63 14.64Q99.04 14.56 99.57 13.95L99.57 13.95L99.57 13.95Q100.10 13.34 100.86 12.07L100.86 12.07L100.86 12.07Q101.00 11.82 101.17 11.51L101.17 11.51L101.17 11.51Q101.35 11.20 101.53 10.86L101.53 10.86L101.53 10.86Q101.71 10.53 101.88 10.18L101.88 10.18L101.88 10.18Q102.06 9.84 102.21 9.52ZM112.14 15.27L112.14 15.27L112.14 15.27Q112.78 14.84 113.40 14.16L113.40 14.16L113.40 14.16Q114.02 13.48 114.52 12.69L114.52 12.69L114.52 12.69Q115.02 11.90 115.37 11.05L115.37 11.05L115.37 11.05Q115.72 10.19 115.85 9.41L115.85 9.41L115.85 9.41Q115.85 9.24 115.67 9.18L115.67 9.18L115.67 9.18Q115.47 9.18 115.13 9.53L115.13 9.53L115.13 9.53Q114.79 9.87 114.37 10.40L114.37 10.40L114.37 10.40Q113.96 10.93 113.53 11.59L113.53 11.59L113.53 11.59Q113.11 12.25 112.76 12.90L112.76 12.90L112.76 12.90Q112.41 13.55 112.16 14.12L112.16 14.12L112.16 14.12Q111.92 14.69 111.89 15.04L111.89 15.04L111.89 15.04Q111.75 15.04 111.65 14.76L111.65 14.76L111.65 14.76Q111.62 14.69 111.55 14.61L111.55 14.61L111.55 14.61Q111.48 14.53 111.33 14.42L111.33 14.42L111.33 14.42Q111.26 14.36 111.19 14.29L111.19 14.29L111.19 14.29Q111.12 14.21 111.09 14.15L111.09 14.15L111.09 14.15Q111.03 14.04 111.03 13.79L111.03 13.79L111.03 13.79Q111.03 12.96 111.24 11.93L111.24 11.93L111.24 11.93Q111.45 10.89 111.80 9.81L111.80 9.81L111.80 9.81Q112.14 8.74 112.60 7.69L112.60 7.69L112.60 7.69Q113.06 6.65 113.56 5.78L113.56 5.78L113.56 5.78Q114.06 4.91 114.56 4.31L114.56 4.31L114.56 4.31Q115.07 3.71 115.51 3.51L115.51 3.51L115.51 3.51Q115.65 3.56 115.85 3.65L115.85 3.65L115.85 3.65Q116.05 3.75 116.24 3.88L116.24 3.88L116.24 3.88Q116.44 4.00 116.61 4.13L116.61 4.13L116.61 4.13Q116.79 4.26 116.87 4.35L116.87 4.35L116.87 4.35Q115.33 5.60 114.20 7.55L114.20 7.55L114.20 7.55Q113.08 9.51 112.36 12.17L112.36 12.17L112.36 12.17Q112.76 11.44 113.25 10.76L113.25 10.76L113.25 10.76Q113.74 10.08 114.22 9.56L114.22 9.56L114.22 9.56Q114.70 9.04 115.14 8.74L115.14 8.74L115.14 8.74Q115.58 8.43 115.88 8.43L115.88 8.43L115.88 8.43Q116.10 8.48 116.31 8.62L116.31 8.62L116.31 8.62Q116.52 8.76 116.69 8.97L116.69 8.97L116.69 8.97Q116.86 9.17 116.97 9.40L116.97 9.40L116.97 9.40Q117.08 9.63 117.11 9.88L117.11 9.88L117.11 9.88Q117.10 10.47 116.91 11.14L116.91 11.14L116.91 11.14Q116.72 11.80 116.40 12.45L116.40 12.45L116.40 12.45Q116.09 13.09 115.69 13.68L115.69 13.68L115.69 13.68Q115.29 14.27 114.85 14.71L114.85 14.71L114.85 14.71Q114.41 15.15 113.97 15.41L113.97 15.41L113.97 15.41Q113.53 15.68 113.13 15.68L113.13 15.68L113.13 15.68Q112.97 15.68 112.79 15.64L112.79 15.64L112.79 15.64Q112.62 15.61 112.47 15.55L112.47 15.55L112.47 15.55Q112.32 15.48 112.23 15.41L112.23 15.41L112.23 15.41Q112.14 15.34 112.14 15.27ZM124.45 14.28L124.45 14.28L124.45 14.28Q124.45 13.66 124.74 12.55L124.74 12.55L124.74 12.55Q125.03 11.44 125.57 9.95L125.57 9.95L125.57 9.95Q126.43 7.59 127.20 6.01L127.20 6.01L127.20 6.01Q127.96 4.44 128.69 3.56L128.69 3.56L128.69 3.56Q128.86 3.58 129.10 3.70L129.10 3.70L129.10 3.70Q129.35 3.81 129.58 3.94L129.58 3.94L129.58 3.94Q129.82 4.07 130.01 4.21L130.01 4.21L130.01 4.21Q130.20 4.35 130.26 4.44L130.26 4.44L130.26 4.44Q129.16 5.73 128.34 7.21L128.34 7.21L128.34 7.21Q127.51 8.69 126.83 10.61L126.83 10.61L126.83 10.61Q126.24 12.26 125.93 13.59L125.93 13.59L125.93 13.59Q125.62 14.91 125.62 15.79L125.62 15.79L125.62 15.79Q125.62 16.03 125.62 16.09L125.62 16.09L125.62 16.09Q125.62 16.14 125.64 16.20L125.64 16.20L125.64 16.20Q125.44 16.17 125.30 16.10L125.30 16.10L125.30 16.10Q125.16 16.03 125.12 15.93L125.12 15.93L125.12 15.93Q125.09 15.86 124.96 15.73L124.96 15.73L124.96 15.73Q124.84 15.60 124.74 15.53L124.74 15.53L124.74 15.53Q124.61 15.44 124.53 15.09L124.53 15.09L124.53 15.09Q124.45 14.73 124.45 14.28ZM139.72 9.38L139.72 9.38L139.72 9.38Q139.66 10.25 139.41 10.87L139.41 10.87L139.41 10.87Q139.16 11.49 138.69 11.96L138.69 11.96L138.69 11.96Q138.22 12.43 137.55 12.81L137.55 12.81L137.55 12.81Q136.88 13.19 135.98 13.54L135.98 13.54L135.98 13.54Q135.98 13.62 135.97 13.71L135.97 13.71L135.97 13.71Q135.97 13.80 135.97 13.90L135.97 13.90L135.97 13.90Q135.97 14.08 136.00 14.28L136.00 14.28L136.00 14.28Q136.02 14.48 136.09 14.64L136.09 14.64L136.09 14.64Q136.16 14.81 136.29 14.92L136.29 14.92L136.29 14.92Q136.42 15.02 136.61 15.02L136.61 15.02L136.61 15.02Q136.99 15.02 137.35 14.85L137.35 14.85L137.35 14.85Q137.72 14.69 138.05 14.44L138.05 14.44L138.05 14.44Q138.38 14.20 138.66 13.91L138.66 13.91L138.66 13.91Q138.95 13.62 139.17 13.38L139.17 13.38L139.17 13.38Q139.31 13.51 139.41 13.62L139.41 13.62L139.41 13.62Q138.78 14.46 138.03 15.02L138.03 15.02L138.03 15.02Q137.28 15.57 136.61 15.72L136.61 15.72L136.61 15.72Q135.65 15.61 135.11 15.02L135.11 15.02L135.11 15.02Q134.57 14.42 134.57 13.58L134.57 13.58L134.57 13.58Q134.57 13.01 134.73 12.41L134.73 12.41L134.73 12.41Q134.89 11.82 135.18 11.26L135.18 11.26L135.18 11.26Q135.46 10.71 135.85 10.22L135.85 10.22L135.85 10.22Q136.23 9.73 136.67 9.37L136.67 9.37L136.67 9.37Q137.12 9.00 137.59 8.79L137.59 8.79L137.59 8.79Q138.05 8.58 138.52 8.58L138.52 8.58L138.52 8.58Q139.16 8.67 139.72 9.38ZM138.75 9.84L138.75 9.84L138.75 9.84Q138.38 9.90 137.97 10.15L137.97 10.15L137.97 10.15Q137.56 10.40 137.21 10.82L137.21 10.82L137.21 10.82Q136.85 11.24 136.56 11.80L136.56 11.80L136.56 11.80Q136.26 12.36 136.09 13.01L136.09 13.01L136.09 13.01Q137.21 12.45 137.96 11.63L137.96 11.63L137.96 11.63Q138.70 10.81 138.75 9.84ZM167.27 7.46L167.27 7.46L167.27 7.46Q167.27 8.13 166.97 8.73L166.97 8.73L166.97 8.73Q166.67 9.32 166.14 9.79L166.14 9.79L166.14 9.79Q165.61 10.26 164.89 10.58L164.89 10.58L164.89 10.58Q164.18 10.91 163.34 11.02L163.34 11.02L163.34 11.02Q163.55 11.65 163.85 12.31L163.85 12.31L163.85 12.31Q164.15 12.98 164.50 13.59L164.50 13.59L164.50 13.59Q164.85 14.21 165.23 14.73L165.23 14.73L165.23 14.73Q165.61 15.25 165.97 15.58L165.97 15.58L165.97 15.58Q165.90 15.72 165.77 15.86L165.77 15.86L165.77 15.86Q165.63 16.00 165.46 16.12L165.46 16.12L165.46 16.12Q165.28 16.24 165.09 16.32L165.09 16.32L165.09 16.32Q164.91 16.39 164.74 16.39L164.74 16.39L164.74 16.39Q164.43 16.39 164.15 16.10L164.15 16.10L164.15 16.10Q163.87 15.81 163.58 15.17L163.58 15.17L163.58 15.17Q163.30 14.53 162.98 13.52L162.98 13.52L162.98 13.52Q162.67 12.50 162.29 11.07L162.29 11.07L162.29 11.07Q162.13 11.07 161.98 11.07L161.98 11.07L161.98 11.07Q161.83 11.07 161.74 11.05L161.74 11.05L161.74 11.05Q161.64 10.99 161.53 10.85L161.53 10.85L161.53 10.85Q161.15 11.66 160.86 12.38L160.86 12.38L160.86 12.38Q160.57 13.09 160.33 13.76L160.33 13.76L160.33 13.76Q160.10 14.42 159.93 15.04L159.93 15.04L159.93 15.04Q159.75 15.67 159.63 16.31L159.63 16.31L159.63 16.31Q159.15 16.20 158.80 15.90L158.80 15.90L158.80 15.90Q158.45 15.61 158.14 15.08L158.14 15.08L158.14 15.08Q158.20 14.95 158.26 14.83L158.26 14.83L158.26 14.83Q158.33 14.71 158.42 14.50L158.42 14.50L158.42 14.50Q158.52 14.28 158.67 13.94L158.67 13.94L158.67 13.94Q158.82 13.61 159.06 13.05L159.06 13.05L159.06 13.05Q159.31 12.49 159.65 11.68L159.65 11.68L159.65 11.68Q159.99 10.86 160.48 9.70L160.48 9.70L160.48 9.70Q160.71 9.18 160.87 8.79L160.87 8.79L160.87 8.79Q161.03 8.40 161.15 8.04L161.15 8.04L161.15 8.04Q161.28 7.69 161.38 7.33L161.38 7.33L161.38 7.33Q161.49 6.97 161.60 6.51L161.60 6.51L161.60 6.51Q160.96 6.73 160.41 7.01L160.41 7.01L160.41 7.01Q159.85 7.28 159.49 7.59L159.49 7.59L159.49 7.59Q159.36 7.50 159.23 7.34L159.23 7.34L159.23 7.34Q159.10 7.17 158.98 6.96L158.98 6.96L158.98 6.96Q158.87 6.76 158.79 6.55L158.79 6.55L158.79 6.55Q158.70 6.34 158.69 6.17L158.69 6.17L158.69 6.17Q159.11 5.89 159.72 5.66L159.72 5.66L159.72 5.66Q160.33 5.42 161.01 5.24L161.01 5.24L161.01 5.24Q161.70 5.07 162.41 4.97L162.41 4.97L162.41 4.97Q163.13 4.87 163.74 4.87L163.74 4.87L163.74 4.87Q165.42 4.87 166.35 5.56L166.35 5.56L166.35 5.56Q167.27 6.26 167.27 7.46ZM163.69 6.02L163.86 6.29L163.86 6.29Q163.76 6.41 163.55 6.79L163.55 6.79L163.55 6.79Q163.34 7.17 163.06 7.69L163.06 7.69L163.06 7.69Q162.79 8.22 162.49 8.83L162.49 8.83L162.49 8.83Q162.19 9.45 161.91 10.05L161.91 10.05L161.91 10.05Q162.96 10.05 163.84 9.86L163.84 9.86L163.84 9.86Q164.72 9.66 165.37 9.30L165.37 9.30L165.37 9.30Q166.01 8.95 166.37 8.46L166.37 8.46L166.37 8.46Q166.73 7.98 166.73 7.39L166.73 7.39L166.73 7.39Q166.73 6.69 166.22 6.32L166.22 6.32L166.22 6.32Q165.72 5.95 164.67 5.95L164.67 5.95L164.67 5.95Q164.43 5.95 164.19 5.97L164.19 5.97L164.19 5.97Q163.95 5.99 163.69 6.02L163.69 6.02ZM178.79 9.38L178.79 9.38L178.79 9.38Q178.74 10.25 178.49 10.87L178.49 10.87L178.49 10.87Q178.23 11.49 177.77 11.96L177.77 11.96L177.77 11.96Q177.30 12.43 176.62 12.81L176.62 12.81L176.62 12.81Q175.95 13.19 175.06 13.54L175.06 13.54L175.06 13.54Q175.06 13.62 175.05 13.71L175.05 13.71L175.05 13.71Q175.04 13.80 175.04 13.90L175.04 13.90L175.04 13.90Q175.04 14.08 175.07 14.28L175.07 14.28L175.07 14.28Q175.10 14.48 175.17 14.64L175.17 14.64L175.17 14.64Q175.24 14.81 175.36 14.92L175.36 14.92L175.36 14.92Q175.49 15.02 175.69 15.02L175.69 15.02L175.69 15.02Q176.06 15.02 176.43 14.85L176.43 14.85L176.43 14.85Q176.79 14.69 177.12 14.44L177.12 14.44L177.12 14.44Q177.45 14.20 177.74 13.91L177.74 13.91L177.74 13.91Q178.02 13.62 178.25 13.38L178.25 13.38L178.25 13.38Q178.39 13.51 178.49 13.62L178.49 13.62L178.49 13.62Q177.86 14.46 177.11 15.02L177.11 15.02L177.11 15.02Q176.36 15.57 175.69 15.72L175.69 15.72L175.69 15.72Q174.72 15.61 174.18 15.02L174.18 15.02L174.18 15.02Q173.64 14.42 173.64 13.58L173.64 13.58L173.64 13.58Q173.64 13.01 173.80 12.41L173.80 12.41L173.80 12.41Q173.96 11.82 174.25 11.26L174.25 11.26L174.25 11.26Q174.54 10.71 174.92 10.22L174.92 10.22L174.92 10.22Q175.31 9.73 175.75 9.37L175.75 9.37L175.75 9.37Q176.19 9.00 176.66 8.79L176.66 8.79L176.66 8.79Q177.13 8.58 177.59 8.58L177.59 8.58L177.59 8.58Q178.23 8.67 178.79 9.38ZM177.83 9.84L177.83 9.84L177.83 9.84Q177.45 9.90 177.04 10.15L177.04 10.15L177.04 10.15Q176.64 10.40 176.28 10.82L176.28 10.82L176.28 10.82Q175.92 11.24 175.63 11.80L175.63 11.80L175.63 11.80Q175.34 12.36 175.17 13.01L175.17 13.01L175.17 13.01Q176.29 12.45 177.03 11.63L177.03 11.63L177.03 11.63Q177.77 10.81 177.83 9.84ZM191.27 9.60L191.27 9.60L191.27 9.60Q191.25 9.87 191.18 10.16L191.18 10.16L191.18 10.16Q191.10 10.44 190.99 10.68L190.99 10.68L190.99 10.68Q190.88 10.91 190.75 11.06L190.75 11.06L190.75 11.06Q190.62 11.21 190.51 11.21L190.51 11.21L190.51 11.21Q190.36 11.20 190.33 11.00L190.33 11.00L190.33 11.00Q190.33 10.96 190.37 10.87L190.37 10.87L190.37 10.87Q190.40 10.78 190.44 10.67L190.44 10.67L190.44 10.67Q190.48 10.56 190.52 10.44L190.52 10.44L190.52 10.44Q190.55 10.33 190.55 10.25L190.55 10.25L190.55 10.25Q190.55 10.05 190.46 9.92L190.46 9.92L190.46 9.92Q190.37 9.79 190.22 9.79L190.22 9.79L190.22 9.79Q189.66 9.79 189.36 10.49L189.36 10.49L189.36 10.49Q189.07 11.19 189.07 12.54L189.07 12.54L189.07 12.54Q189.07 12.68 189.08 12.71L189.08 12.71L189.08 12.71Q189.38 12.70 189.61 12.69L189.61 12.69L189.61 12.69Q189.84 12.68 190.06 12.68L190.06 12.68L190.06 12.68Q190.08 12.71 190.08 12.80L190.08 12.80L190.08 12.80Q190.08 12.92 190.02 12.98L190.02 12.98L190.02 12.98Q189.70 13.05 189.51 13.10L189.51 13.10L189.51 13.10Q189.32 13.15 189.22 13.19L189.22 13.19L189.22 13.19Q189.13 13.23 189.11 13.28L189.11 13.28L189.11 13.28Q189.08 13.33 189.08 13.41L189.08 13.41L189.08 13.41Q189.08 13.52 189.09 13.64L189.09 13.64L189.09 13.64Q189.10 13.75 189.10 13.92L189.10 13.92L189.10 13.92Q189.10 15.09 188.46 15.81L188.46 15.81L188.46 15.81Q187.82 16.52 186.69 16.63L186.69 16.63L186.69 16.63Q186.49 16.62 186.28 16.52L186.28 16.52L186.28 16.52Q186.07 16.42 185.89 16.27L185.89 16.27L185.89 16.27Q185.70 16.11 185.56 15.93L185.56 15.93L185.56 15.93Q185.42 15.74 185.36 15.54L185.36 15.54L185.36 15.54Q185.36 15.01 185.58 14.53L185.58 14.53L185.58 14.53Q185.81 14.04 186.19 13.67L186.19 13.67L186.19 13.67Q186.58 13.30 187.10 13.07L187.10 13.07L187.10 13.07Q187.63 12.84 188.24 12.80L188.24 12.80L188.24 12.80Q188.24 12.45 188.17 12.11L188.17 12.11L188.17 12.11Q188.10 11.77 188.03 11.46L188.03 11.46L188.03 11.46Q187.95 11.14 187.88 10.84L187.88 10.84L187.88 10.84Q187.81 10.54 187.81 10.25L187.81 10.25L187.81 10.25Q187.81 9.87 187.96 9.50L187.96 9.50L187.96 9.50Q188.12 9.13 188.37 8.81L188.37 8.81L188.37 8.81Q188.62 8.50 188.96 8.27L188.96 8.27L188.96 8.27Q189.29 8.05 189.66 7.97L189.66 7.97L189.66 7.97Q189.81 8.01 190.07 8.21L190.07 8.21L190.07 8.21Q190.33 8.41 190.58 8.67L190.58 8.67L190.58 8.67Q190.83 8.92 191.03 9.18L191.03 9.18L191.03 9.18Q191.23 9.44 191.27 9.60ZM186.65 15.99L186.65 15.99L186.65 15.99Q186.98 15.85 187.29 15.58L187.29 15.58L187.29 15.58Q187.59 15.32 187.81 14.98L187.81 14.98L187.81 14.98Q188.03 14.64 188.17 14.27L188.17 14.27L188.17 14.27Q188.30 13.89 188.30 13.52L188.30 13.52L188.30 13.52Q188.02 13.57 187.68 13.78L187.68 13.78L187.68 13.78Q187.35 14 187.05 14.30L187.05 14.30L187.05 14.30Q186.76 14.60 186.56 14.92L186.56 14.92L186.56 14.92Q186.37 15.25 186.37 15.48L186.37 15.48L186.37 15.48Q186.37 15.79 186.65 15.99ZM199.93 15.67L199.93 15.67L199.93 15.67Q199.14 15.58 198.66 14.97L198.66 14.97L198.66 14.97Q198.18 14.35 198.18 13.40L198.18 13.40L198.18 13.40Q198.18 12.84 198.35 12.24L198.35 12.24L198.35 12.24Q198.52 11.63 198.83 11.07L198.83 11.07L198.83 11.07Q199.14 10.50 199.56 10.00L199.56 10.00L199.56 10.00Q199.98 9.49 200.47 9.13L200.47 9.13L200.47 9.13Q201.24 8.55 201.91 8.55L201.91 8.55L201.91 8.55Q202.36 8.79 202.79 9.55L202.79 9.55L202.79 9.55Q202.86 9.55 202.92 9.54L202.92 9.54L202.92 9.54Q202.97 9.53 203.04 9.53L203.04 9.53L203.04 9.53Q203.78 9.53 203.78 10.85L203.78 10.85L203.78 10.85Q203.78 11.73 203.50 12.52L203.50 12.52L203.50 12.52Q203.21 13.31 202.70 13.96L202.70 13.96L202.70 13.96Q202.19 14.60 201.48 15.04L201.48 15.04L201.48 15.04Q200.77 15.48 199.93 15.67ZM200.65 11.26L200.65 11.26L200.65 11.26Q200.41 11.58 200.20 11.96L200.20 11.96L200.20 11.96Q199.99 12.33 199.84 12.72L199.84 12.72L199.84 12.72Q199.68 13.10 199.60 13.46L199.60 13.46L199.60 13.46Q199.51 13.82 199.51 14.10L199.51 14.10L199.51 14.10Q199.51 14.43 199.63 14.74L199.63 14.74L199.63 14.74Q199.74 15.05 199.88 15.09L199.88 15.09L199.88 15.09Q200.51 14.95 201.03 14.57L201.03 14.57L201.03 14.57Q201.56 14.18 201.94 13.61L201.94 13.61L201.94 13.61Q202.33 13.03 202.55 12.31L202.55 12.31L202.55 12.31Q202.76 11.58 202.76 10.75L202.76 10.75L202.76 10.75Q202.76 10.39 202.72 10.18L202.72 10.18L202.72 10.18Q202.68 9.97 202.58 9.81L202.58 9.81L202.58 9.81Q201.96 10.00 201.48 10.40L201.48 10.40L201.48 10.40Q201.00 10.81 200.65 11.26ZM215.26 14.87L215.26 14.87L215.26 14.87Q215.00 14.64 214.91 14.31L214.91 14.31L214.91 14.31Q214.82 13.97 214.82 13.73L214.82 13.73L214.82 13.73Q214.82 13.44 214.89 13.23L214.89 13.23L214.89 13.23Q214.83 13.23 214.63 13.45L214.63 13.45L214.63 13.45Q214.44 13.68 214.21 13.99L214.21 13.99L214.21 13.99Q213.98 14.29 213.75 14.59L213.75 14.59L213.75 14.59Q213.53 14.88 213.42 15.02L213.42 15.02L213.42 15.02Q213.23 15.22 213.07 15.33L213.07 15.33L213.07 15.33Q212.91 15.44 212.81 15.46L212.81 15.46L212.81 15.46Q212.59 15.44 212.35 15.37L212.35 15.37L212.35 15.37Q212.10 15.29 211.88 15.15L211.88 15.15L211.88 15.15Q211.67 15.01 211.51 14.81L211.51 14.81L211.51 14.81Q211.34 14.62 211.29 14.36L211.29 14.36L211.29 14.36Q211.29 13.97 211.31 13.72L211.31 13.72L211.31 13.72Q211.33 13.47 211.40 13.17L211.40 13.17L211.40 13.17Q211.53 12.64 211.77 11.97L211.77 11.97L211.77 11.97Q212.02 11.30 212.34 10.65L212.34 10.65L212.34 10.65Q212.66 10.00 213.06 9.43L213.06 9.43L213.06 9.43Q213.46 8.86 213.91 8.54L213.91 8.54L213.91 8.54Q214.03 8.54 214.20 8.56L214.20 8.56L214.20 8.56Q214.37 8.58 214.54 8.64L214.54 8.64L214.54 8.64Q214.72 8.69 214.88 8.77L214.88 8.77L214.88 8.77Q215.04 8.85 215.15 8.97L215.15 8.97L215.15 8.97Q215.03 9.11 214.52 9.91L214.52 9.91L214.52 9.91Q214.00 10.71 213.37 12.21L213.37 12.21L213.37 12.21Q213.30 12.36 213.21 12.66L213.21 12.66L213.21 12.66Q213.11 12.95 213.01 13.27L213.01 13.27L213.01 13.27Q212.91 13.59 212.85 13.90L212.85 13.90L212.85 13.90Q212.79 14.21 212.79 14.39L212.79 14.39L212.79 14.39Q212.79 14.50 212.82 14.56L212.82 14.56L212.82 14.56Q212.86 14.62 212.88 14.64L212.88 14.64L212.88 14.64Q213.09 14.56 213.42 14.18L213.42 14.18L213.42 14.18Q213.74 13.80 214.31 13.02L214.31 13.02L214.31 13.02Q214.45 12.82 214.64 12.57L214.64 12.57L214.64 12.57Q214.83 12.32 215.03 12.03L215.03 12.03L215.03 12.03Q215.22 11.75 215.40 11.44L215.40 11.44L215.40 11.44Q215.57 11.13 215.68 10.82L215.68 10.82L215.68 10.82Q215.74 10.65 215.83 10.42L215.83 10.42L215.83 10.42Q215.92 10.19 216.06 9.94L216.06 9.94L216.06 9.94Q216.19 9.69 216.36 9.43L216.36 9.43L216.36 9.43Q216.54 9.17 216.78 8.95L216.78 8.95L216.78 8.95Q216.96 8.95 217.17 8.99L217.17 8.99L217.17 8.99Q217.38 9.03 217.57 9.09L217.57 9.09L217.57 9.09Q217.76 9.16 217.90 9.23L217.90 9.23L217.90 9.23Q218.04 9.31 218.11 9.39L218.11 9.39L218.11 9.39Q217.85 10.01 217.55 10.61L217.55 10.61L217.55 10.61Q217.24 11.21 216.97 11.79L216.97 11.79L216.97 11.79Q216.71 12.38 216.52 12.95L216.52 12.95L216.52 12.95Q216.34 13.52 216.34 14.07L216.34 14.07L216.34 14.07Q216.34 14.36 216.39 14.58L216.39 14.58L216.39 14.58Q216.44 14.80 216.50 14.95L216.50 14.95L216.50 14.95Q216.55 15.09 216.60 15.19L216.60 15.19L216.60 15.19Q216.65 15.29 216.65 15.36L216.65 15.36L216.65 15.36Q216.65 15.37 216.62 15.40L216.62 15.40L216.62 15.40Q216.61 15.41 216.59 15.41L216.59 15.41L216.59 15.41Q216.50 15.41 216.34 15.37L216.34 15.37L216.34 15.37Q216.19 15.33 216.00 15.25L216.00 15.25L216.00 15.25Q215.81 15.18 215.62 15.08L215.62 15.08L215.62 15.08Q215.43 14.98 215.26 14.87ZM225.04 14.90L225.04 14.90L225.04 14.90Q225.11 14.49 225.28 13.82L225.28 13.82L225.28 13.82Q225.46 13.16 225.69 12.41L225.69 12.41L225.69 12.41Q225.93 11.66 226.20 10.91L226.20 10.91L226.20 10.91Q226.46 10.15 226.72 9.55L226.72 9.55L226.72 9.55Q226.90 9.11 227.04 8.87L227.04 8.87L227.04 8.87Q227.18 8.62 227.35 8.46L227.35 8.46L227.35 8.46Q227.54 8.48 227.75 8.55L227.75 8.55L227.75 8.55Q227.96 8.62 228.16 8.72L228.16 8.72L228.16 8.72Q228.35 8.82 228.51 8.93L228.51 8.93L228.51 8.93Q228.66 9.03 228.75 9.13L228.75 9.13L228.75 9.13Q228.37 9.58 228.08 10.15L228.08 10.15L228.08 10.15Q227.79 10.72 227.50 11.62L227.50 11.62L227.50 11.62Q228.26 10.95 228.84 10.33L228.84 10.33L228.84 10.33Q229.42 9.72 229.92 8.96L229.92 8.96L229.92 8.96Q230.01 8.89 230.22 8.89L230.22 8.89L230.22 8.89Q230.41 8.89 230.59 8.95L230.59 8.95L230.59 8.95Q230.78 9.02 230.85 9.13L230.85 9.13L230.85 9.13Q230.59 9.80 230.59 10.46L230.59 10.46L230.59 10.46Q230.59 11.07 230.78 11.38L230.78 11.38L230.78 11.38Q230.76 11.47 230.59 11.70L230.59 11.70L230.59 11.70Q230.41 11.94 230.20 12.15L230.20 12.15L230.20 12.15Q229.82 11.96 229.53 11.61L229.53 11.61L229.53 11.61Q229.24 11.27 229.10 10.86L229.10 10.86L229.10 10.86Q228.44 11.33 227.98 11.77L227.98 11.77L227.98 11.77Q227.51 12.21 227.19 12.75L227.19 12.75L227.19 12.75Q226.86 13.29 226.63 13.99L226.63 13.99L226.63 13.99Q226.39 14.69 226.18 15.65L226.18 15.65L226.18 15.65Q226.06 15.64 225.88 15.56L225.88 15.56L225.88 15.56Q225.71 15.48 225.53 15.37L225.53 15.37L225.53 15.37Q225.36 15.26 225.22 15.13L225.22 15.13L225.22 15.13Q225.08 15.01 225.04 14.90ZM238.10 12.71L238.10 12.71L238.10 12.71Q238.10 11.91 238.43 11.16L238.43 11.16L238.43 11.16Q238.76 10.42 239.30 9.84L239.30 9.84L239.30 9.84Q239.83 9.25 240.53 8.90L240.53 8.90L240.53 8.90Q241.22 8.54 241.96 8.54L241.96 8.54L241.96 8.54Q242.69 8.54 243.08 8.90L243.08 8.90L243.08 8.90Q243.47 9.27 243.47 9.94L243.47 9.94L243.47 9.94Q243.47 10.26 243.38 10.56L243.38 10.56L243.38 10.56Q243.29 10.86 243.15 11.10L243.15 11.10L243.15 11.10Q243.00 11.34 242.80 11.49L242.80 11.49L242.80 11.49Q242.61 11.63 242.41 11.63L242.41 11.63L242.41 11.63Q242.24 11.63 242.07 11.53L242.07 11.53L242.07 11.53Q241.89 11.42 241.78 11.26L241.78 11.26L241.78 11.26Q242.72 10.40 242.72 9.70L242.72 9.70L242.72 9.70Q242.72 9.30 242.40 9.30L242.40 9.30L242.40 9.30Q242.12 9.30 241.70 9.56L241.70 9.56L241.70 9.56Q241.28 9.83 240.88 10.26L240.88 10.26L240.88 10.26Q240.28 10.93 239.97 11.75L239.97 11.75L239.97 11.75Q239.65 12.57 239.65 13.47L239.65 13.47L239.65 13.47Q239.65 14.60 240.16 14.83L240.16 14.83L240.16 14.83Q240.37 14.80 240.65 14.70L240.65 14.70L240.65 14.70Q240.93 14.60 241.25 14.44L241.25 14.44L241.25 14.44Q241.57 14.28 241.91 14.07L241.91 14.07L241.91 14.07Q242.26 13.86 242.58 13.62L242.58 13.62L242.58 13.62Q242.63 13.66 242.68 13.75L242.68 13.75L242.68 13.75Q242.72 13.83 242.72 13.90L242.72 13.90L242.72 13.90Q242.48 14.20 242.17 14.48L242.17 14.48L242.17 14.48Q241.86 14.76 241.53 14.99L241.53 14.99L241.53 14.99Q241.19 15.22 240.88 15.38L240.88 15.38L240.88 15.38Q240.56 15.54 240.32 15.58L240.32 15.58L240.32 15.58Q239.86 15.54 239.46 15.29L239.46 15.29L239.46 15.29Q239.05 15.05 238.75 14.66L238.75 14.66L238.75 14.66Q238.45 14.27 238.27 13.76L238.27 13.76L238.27 13.76Q238.10 13.26 238.10 12.71ZM255.91 9.38L255.91 9.38L255.91 9.38Q255.85 10.25 255.60 10.87L255.60 10.87L255.60 10.87Q255.35 11.49 254.88 11.96L254.88 11.96L254.88 11.96Q254.41 12.43 253.74 12.81L253.74 12.81L253.74 12.81Q253.06 13.19 252.17 13.54L252.17 13.54L252.17 13.54Q252.17 13.62 252.16 13.71L252.16 13.71L252.16 13.71Q252.15 13.80 252.15 13.90L252.15 13.90L252.15 13.90Q252.15 14.08 252.18 14.28L252.18 14.28L252.18 14.28Q252.21 14.48 252.28 14.64L252.28 14.64L252.28 14.64Q252.35 14.81 252.48 14.92L252.48 14.92L252.48 14.92Q252.60 15.02 252.80 15.02L252.80 15.02L252.80 15.02Q253.18 15.02 253.54 14.85L253.54 14.85L253.54 14.85Q253.90 14.69 254.23 14.44L254.23 14.44L254.23 14.44Q254.56 14.20 254.85 13.91L254.85 13.91L254.85 13.91Q255.14 13.62 255.36 13.38L255.36 13.38L255.36 13.38Q255.50 13.51 255.60 13.62L255.60 13.62L255.60 13.62Q254.97 14.46 254.22 15.02L254.22 15.02L254.22 15.02Q253.47 15.57 252.80 15.72L252.80 15.72L252.80 15.72Q251.83 15.61 251.29 15.02L251.29 15.02L251.29 15.02Q250.75 14.42 250.75 13.58L250.75 13.58L250.75 13.58Q250.75 13.01 250.91 12.41L250.91 12.41L250.91 12.41Q251.08 11.82 251.36 11.26L251.36 11.26L251.36 11.26Q251.65 10.71 252.03 10.22L252.03 10.22L252.03 10.22Q252.42 9.73 252.86 9.37L252.86 9.37L252.86 9.37Q253.30 9.00 253.77 8.79L253.77 8.79L253.77 8.79Q254.24 8.58 254.70 8.58L254.70 8.58L254.70 8.58Q255.35 8.67 255.91 9.38ZM254.94 9.84L254.94 9.84L254.94 9.84Q254.56 9.90 254.16 10.15L254.16 10.15L254.16 10.15Q253.75 10.40 253.39 10.82L253.39 10.82L253.39 10.82Q253.04 11.24 252.74 11.80L252.74 11.80L252.74 11.80Q252.45 12.36 252.28 13.01L252.28 13.01L252.28 13.01Q253.40 12.45 254.14 11.63L254.14 11.63L254.14 11.63Q254.88 10.81 254.94 9.84ZM268.38 9.60L268.38 9.60L268.38 9.60Q268.37 9.87 268.29 10.16L268.29 10.16L268.29 10.16Q268.21 10.44 268.10 10.68L268.10 10.68L268.10 10.68Q267.99 10.91 267.86 11.06L267.86 11.06L267.86 11.06Q267.74 11.21 267.62 11.21L267.62 11.21L267.62 11.21Q267.47 11.20 267.44 11.00L267.44 11.00L267.44 11.00Q267.44 10.96 267.48 10.87L267.48 10.87L267.48 10.87Q267.51 10.78 267.55 10.67L267.55 10.67L267.55 10.67Q267.60 10.56 267.63 10.44L267.63 10.44L267.63 10.44Q267.67 10.33 267.67 10.25L267.67 10.25L267.67 10.25Q267.67 10.05 267.57 9.92L267.57 9.92L267.57 9.92Q267.48 9.79 267.33 9.79L267.33 9.79L267.33 9.79Q266.77 9.79 266.48 10.49L266.48 10.49L266.48 10.49Q266.18 11.19 266.18 12.54L266.18 12.54L266.18 12.54Q266.18 12.68 266.20 12.71L266.20 12.71L266.20 12.71Q266.49 12.70 266.72 12.69L266.72 12.69L266.72 12.69Q266.95 12.68 267.18 12.68L267.18 12.68L267.18 12.68Q267.19 12.71 267.19 12.80L267.19 12.80L267.19 12.80Q267.19 12.92 267.13 12.98L267.13 12.98L267.13 12.98Q266.81 13.05 266.62 13.10L266.62 13.10L266.62 13.10Q266.43 13.15 266.34 13.19L266.34 13.19L266.34 13.19Q266.24 13.23 266.22 13.28L266.22 13.28L266.22 13.28Q266.20 13.33 266.20 13.41L266.20 13.41L266.20 13.41Q266.20 13.52 266.20 13.64L266.20 13.64L266.20 13.64Q266.21 13.75 266.21 13.92L266.21 13.92L266.21 13.92Q266.21 15.09 265.57 15.81L265.57 15.81L265.57 15.81Q264.94 16.52 263.80 16.63L263.80 16.63L263.80 16.63Q263.61 16.62 263.40 16.52L263.40 16.52L263.40 16.52Q263.19 16.42 263.00 16.27L263.00 16.27L263.00 16.27Q262.81 16.11 262.67 15.93L262.67 15.93L262.67 15.93Q262.53 15.74 262.47 15.54L262.47 15.54L262.47 15.54Q262.47 15.01 262.70 14.53L262.70 14.53L262.70 14.53Q262.92 14.04 263.31 13.67L263.31 13.67L263.31 13.67Q263.69 13.30 264.22 13.07L264.22 13.07L264.22 13.07Q264.74 12.84 265.36 12.80L265.36 12.80L265.36 12.80Q265.36 12.45 265.29 12.11L265.29 12.11L265.29 12.11Q265.22 11.77 265.14 11.46L265.14 11.46L265.14 11.46Q265.06 11.14 264.99 10.84L264.99 10.84L264.99 10.84Q264.92 10.54 264.92 10.25L264.92 10.25L264.92 10.25Q264.92 9.87 265.08 9.50L265.08 9.50L265.08 9.50Q265.23 9.13 265.48 8.81L265.48 8.81L265.48 8.81Q265.73 8.50 266.07 8.27L266.07 8.27L266.07 8.27Q266.41 8.05 266.77 7.97L266.77 7.97L266.77 7.97Q266.92 8.01 267.18 8.21L267.18 8.21L267.18 8.21Q267.44 8.41 267.69 8.67L267.69 8.67L267.69 8.67Q267.95 8.92 268.14 9.18L268.14 9.18L268.14 9.18Q268.34 9.44 268.38 9.60ZM263.76 15.99L263.76 15.99L263.76 15.99Q264.10 15.85 264.40 15.58L264.40 15.58L264.40 15.58Q264.70 15.32 264.92 14.98L264.92 14.98L264.92 14.98Q265.15 14.64 265.28 14.27L265.28 14.27L265.28 14.27Q265.41 13.89 265.41 13.52L265.41 13.52L265.41 13.52Q265.13 13.57 264.80 13.78L264.80 13.78L264.80 13.78Q264.46 14 264.17 14.30L264.17 14.30L264.17 14.30Q263.87 14.60 263.68 14.92L263.68 14.92L263.68 14.92Q263.48 15.25 263.48 15.48L263.48 15.48L263.48 15.48Q263.48 15.79 263.76 15.99Z"></path></g></svg>